<svg width="15" height="16" viewBox="0 0 15 16" fill="none" xmlns="http://www.w3.org/2000/svg">
<path d="M7.50009 15.5C11.6422 15.5 15 12.1421 15 8C15 3.85786 11.6422 0.5 7.50009 0.5C3.35796 0.5 0.00012207 3.85786 0.00012207 8C0.00012207 12.1421 3.35796 15.5 7.50009 15.5Z" fill="url(#paint0_radial_90_8017)"/>
<path d="M7.50009 15.5C11.6422 15.5 15 12.1421 15 8C15 3.85786 11.6422 0.5 7.50009 0.5C3.35796 0.5 0.00012207 3.85786 0.00012207 8C0.00012207 12.1421 3.35796 15.5 7.50009 15.5Z" fill="url(#paint1_radial_90_8017)"/>
<path d="M7.50009 15.5C11.6422 15.5 15 12.1421 15 8C15 3.85786 11.6422 0.5 7.50009 0.5C3.35796 0.5 0.00012207 3.85786 0.00012207 8C0.00012207 12.1421 3.35796 15.5 7.50009 15.5Z" fill="url(#paint2_radial_90_8017)"/>
<path d="M7.50009 15.5C11.6422 15.5 15.0001 12.1421 15.0001 8C15.0001 3.85786 11.6422 0.5 7.50009 0.5C3.35796 0.5 0.00012207 3.85786 0.00012207 8C0.00012207 12.1421 3.35796 15.5 7.50009 15.5Z" fill="url(#paint3_radial_90_8017)"/>
<g filter="url(#filter0_ii_90_8017)">
<path d="M0.0156068 7.51289C0.00315354 7.70709 -0.00185005 7.90169 0.000606903 8.09628C0.186571 8.02419 0.370232 7.94629 0.551319 7.86271C1.13899 7.59271 1.9072 7.17056 2.61809 6.5636C3.13773 6.12003 3.63059 5.57467 3.99809 4.91414C4.42666 5.13753 4.83541 5.36949 5.22594 5.60735C4.30352 6.69187 3.56286 7.91865 3.03274 9.24003C2.58433 10.3568 2.29647 11.5315 2.17774 12.7291C2.15953 12.9172 2.14774 13.0902 2.14024 13.2461C2.30631 13.4165 2.48149 13.5788 2.66363 13.7331C2.66387 13.415 2.6796 13.0971 2.71077 12.7806C2.79274 11.9304 3.00541 10.7502 3.53041 9.43931C4.04877 8.14741 4.77676 6.94989 5.68504 5.89503C6.22614 6.24385 6.75047 6.61802 7.25629 7.01628C6.91488 7.39867 6.6241 7.82341 6.39111 8.28003C5.23719 10.5279 5.39951 13.5407 7.06932 15.4881C7.31694 15.5021 7.56509 15.5041 7.81289 15.494C6.00165 13.77 5.71826 10.762 6.8679 8.52431C7.08593 8.09949 7.35486 7.70467 7.67307 7.35378C8.64656 8.16261 9.53947 9.06378 10.3393 10.0447C11.0958 10.968 11.7573 11.9652 12.3139 13.0211C12.4125 13.2091 12.4961 13.38 12.5668 13.53C12.7061 13.4025 12.8405 13.2697 12.9702 13.1315C12.9115 13.0112 12.8511 12.8917 12.7891 12.7731C12.2156 11.685 11.534 10.6575 10.7545 9.7061C10.0366 8.82485 9.14735 7.88788 8.05557 6.97556C8.57318 6.51532 9.18433 6.17264 9.84699 5.9711C11.1525 5.57146 12.8229 5.64431 14.8505 6.50253C14.8065 6.28596 14.7529 6.07146 14.6898 5.85967C12.7345 5.10431 11.0577 5.04003 9.69003 5.45896C8.92585 5.69144 8.22371 6.09277 7.63557 6.63324C7.12367 6.22778 6.59309 5.84647 6.04558 5.49056C7.33396 4.10467 9.10985 2.77235 11.5597 1.69288C11.3753 1.57409 11.1859 1.46345 10.9918 1.36128C8.6111 2.46163 6.86468 3.80306 5.5854 5.19913C5.15683 4.93556 4.70683 4.67949 4.23434 4.43306C4.27618 4.33472 4.31477 4.23502 4.35005 4.13414C4.65005 3.28021 4.73308 2.28431 4.4738 1.13574C4.30505 1.21074 4.13952 1.2911 3.97773 1.37681C4.18291 2.38074 4.09827 3.23413 3.84487 3.95681C3.8171 4.03551 3.78709 4.1134 3.75487 4.19038C3.07302 3.85612 2.37523 3.5554 1.66399 3.28931C1.54721 3.43396 1.43524 3.58342 1.32917 3.73664C2.07532 4.01004 2.80667 4.32225 3.52023 4.67199C3.19077 5.25646 2.74881 5.74771 2.27042 6.15592C1.60828 6.7211 0.886674 7.11913 0.327391 7.37628C0.216499 7.42717 0.111499 7.47271 0.0156068 7.51289Z" fill="#4D3A45"/>
</g>
<defs>
<filter id="filter0_ii_90_8017" x="0" y="1.03574" width="14.8505" height="14.5643" filterUnits="userSpaceOnUse" color-interpolation-filters="sRGB">
<feFlood flood-opacity="0" result="BackgroundImageFix"/>
<feBlend mode="normal" in="SourceGraphic" in2="BackgroundImageFix" result="shape"/>
<feColorMatrix in="SourceAlpha" type="matrix" values="0 0 0 0 0 0 0 0 0 0 0 0 0 0 0 0 0 0 127 0" result="hardAlpha"/>
<feOffset dy="0.2"/>
<feGaussianBlur stdDeviation="0.05"/>
<feComposite in2="hardAlpha" operator="arithmetic" k2="-1" k3="1"/>
<feColorMatrix type="matrix" values="0 0 0 0 0.266667 0 0 0 0 0.172549 0 0 0 0 0.25098 0 0 0 1 0"/>
<feBlend mode="normal" in2="shape" result="effect1_innerShadow_90_8017"/>
<feColorMatrix in="SourceAlpha" type="matrix" values="0 0 0 0 0 0 0 0 0 0 0 0 0 0 0 0 0 0 127 0" result="hardAlpha"/>
<feOffset dy="-0.2"/>
<feGaussianBlur stdDeviation="0.05"/>
<feComposite in2="hardAlpha" operator="arithmetic" k2="-1" k3="1"/>
<feColorMatrix type="matrix" values="0 0 0 0 0.356863 0 0 0 0 0.294118 0 0 0 0 0.305882 0 0 0 1 0"/>
<feBlend mode="normal" in2="effect1_innerShadow_90_8017" result="effect2_innerShadow_90_8017"/>
</filter>
<radialGradient id="paint0_radial_90_8017" cx="0" cy="0" r="1" gradientUnits="userSpaceOnUse" gradientTransform="translate(11.844 4.97777) rotate(138.691) scale(10.0065 10.0065)">
<stop stop-color="#FFA167"/>
<stop offset="0.554" stop-color="#FF7D31"/>
<stop offset="1" stop-color="#EC5B36"/>
</radialGradient>
<radialGradient id="paint1_radial_90_8017" cx="0" cy="0" r="1" gradientUnits="userSpaceOnUse" gradientTransform="translate(8.76865 5.88929) rotate(99.462) scale(10.3912 13.7035)">
<stop offset="0.466" stop-color="#D73853" stop-opacity="0"/>
<stop offset="1" stop-color="#D75B8F"/>
</radialGradient>
<radialGradient id="paint2_radial_90_8017" cx="0" cy="0" r="1" gradientUnits="userSpaceOnUse" gradientTransform="translate(7.49955 5.40339) rotate(90) scale(10.0968 10.0968)">
<stop offset="0.895" stop-color="#D85C90" stop-opacity="0"/>
<stop offset="1" stop-color="#D85C90"/>
</radialGradient>
<radialGradient id="paint3_radial_90_8017" cx="0" cy="0" r="1" gradientUnits="userSpaceOnUse" gradientTransform="translate(8.41419 9.19279) rotate(-144.333) scale(8.97442 10.5555)">
<stop offset="0.858" stop-color="#E07162" stop-opacity="0"/>
<stop offset="1" stop-color="#E07162"/>
</radialGradient>
</defs>
</svg>
