<svg width="15" height="16" viewBox="0 0 15 16" fill="none" xmlns="http://www.w3.org/2000/svg">
<path d="M14.9833 7.99788C14.9886 7.81963 15.0356 5.27192 13.5278 3.61345C13.4608 3.4652 13.1431 2.86771 12.1176 2.13747C11.663 1.78483 11.1801 1.47019 10.6739 1.19674L10.6719 1.19574C10.6079 1.16149 9.35737 0.5 7.83963 0.5C7.72438 0.5 7.61038 0.50675 7.49763 0.5145V0.5125C6.34039 0.48725 5.1909 0.784995 4.49815 1.09774C3.88366 1.37524 3.20141 1.84048 3.15216 1.87648C2.30117 2.35247 0.687433 4.26269 0.559684 5.27492C0.0439381 5.93416 -0.387059 8.89536 0.560684 10.6991C1.22518 13.2058 3.72666 14.4603 3.92566 14.5565C4.04666 14.6338 5.4099 15.4765 7.08463 15.4765C7.15488 15.4765 7.57963 15.5 7.73113 15.5C9.54137 15.5 12.2238 14.224 12.7853 13.2245C14.3281 12.0961 15.1278 9.18786 14.9833 7.99788ZM3.93941 11.7636C3.22216 10.6033 2.81342 9.08736 2.72592 8.73911C2.95292 8.39887 4.07266 6.7479 4.71065 6.25115C5.0719 6.31765 6.58039 6.59465 8.00313 6.85214C8.18188 7.31539 8.96612 9.35935 9.19062 10.1483C8.94312 10.4418 7.97088 11.5738 7.01364 12.4603C5.99739 12.4651 4.26891 11.8788 3.93941 11.7636ZM12.9558 3.64495C12.9528 3.75745 12.9261 4.15744 12.7346 4.61668C12.3543 4.42243 11.3986 4.00644 10.0886 3.93619C9.89036 3.64345 9.14437 2.62271 7.96613 1.91473C8.12738 1.59923 8.35187 1.21449 8.48312 1.09724C8.52562 1.08524 8.59162 1.07424 8.69212 1.07424C9.32387 1.07424 10.4154 1.48798 10.5104 1.52473C10.6111 1.57798 12.5731 2.63446 12.9558 3.64495ZM2.44317 8.50287C1.58743 8.35687 1.07868 8.09087 0.926681 8.00088C0.608434 6.84664 0.864682 5.59916 0.904182 5.42042C1.21818 4.85893 2.11217 3.4277 2.70192 3.15596C3.31316 3.03121 4.07541 3.18621 4.38591 3.26195C4.35666 3.6657 4.30041 4.79368 4.4674 5.97741C3.79091 6.5219 2.72017 8.08912 2.44317 8.50287ZM7.42113 0.882494C7.61313 0.896743 7.89488 0.938743 8.08788 0.995992C7.89538 1.25199 7.69813 1.63148 7.60488 1.81898C7.21238 1.88323 5.72164 2.16822 4.55215 2.92646C4.31641 2.86396 3.60441 2.69721 2.93017 2.75471C3.09716 2.43147 3.34666 2.19247 3.37341 2.16797C3.46616 2.10147 5.25165 0.852244 7.42113 0.879244V0.882494ZM12.1951 10.4056C11.9026 10.3936 10.7756 10.3293 9.53987 10.0391C9.30312 9.21361 8.52137 7.17814 8.34262 6.71515C8.91135 5.90452 9.48871 5.09999 10.0746 4.30169C11.4966 4.37969 12.4951 4.89843 12.6883 5.00668C13.5121 6.3314 13.6928 7.68438 13.7176 7.91038C13.2801 9.27185 12.4148 10.1886 12.1951 10.4056ZM0.413685 7.12964C0.434685 7.44613 0.485435 7.77938 0.577184 8.10887C0.494699 8.32238 0.437477 8.54481 0.406685 8.77161C0.354474 8.22541 0.356819 7.67537 0.413685 7.12964ZM2.82467 12.9693C3.20166 12.606 3.66641 12.2526 3.84666 12.1191C4.25416 12.2626 5.92764 12.8283 6.99439 12.8283C7.17613 13.072 7.77038 13.8353 8.49887 14.4188C8.04538 14.8625 7.39038 15.072 7.27463 15.1068C5.2429 15.1613 3.26416 14.0193 2.82467 12.9693ZM8.19038 15.1038C8.42087 14.9695 8.66112 14.7928 8.85987 14.569C9.18412 14.5243 10.5756 14.2848 11.8331 13.361C11.9161 13.37 12.0528 13.381 12.2056 13.3768C11.4511 14.116 9.61012 14.9418 8.19038 15.1038ZM12.0463 13.0098C12.4981 11.8328 12.4788 10.9453 12.4566 10.6618C12.7046 10.4188 13.5556 9.5121 14.0278 8.13362C14.2823 8.17612 14.4478 8.24087 14.5263 8.27712C14.5536 8.37712 14.5991 8.60812 14.5733 8.95836C14.3808 10.2191 13.7163 12.1083 12.5523 12.9435C12.4353 13.0033 12.2293 13.0163 12.0463 13.0098Z" fill="black"/>
</svg>
