<svg width="32" height="36" viewBox="0 0 32 36" fill="none" xmlns="http://www.w3.org/2000/svg">
<path d="M16.0063 9.91367C12.0313 9.91367 8.825 13.5207 8.825 17.9926C8.825 22.4645 12.0313 26.0715 16.0063 26.0715C19.9813 26.0715 23.1875 22.4645 23.1875 17.9926C23.1875 13.5207 19.9813 9.91367 16.0063 9.91367ZM16.0063 23.2449C13.4375 23.2449 11.3375 20.8895 11.3375 17.9926C11.3375 15.0957 13.4313 12.7402 16.0063 12.7402C18.5813 12.7402 20.675 15.0957 20.675 17.9926C20.675 20.8895 18.575 23.2449 16.0063 23.2449ZM25.1563 9.5832C25.1563 10.6309 24.4063 11.4676 23.4813 11.4676C22.55 11.4676 21.8063 10.6238 21.8063 9.5832C21.8063 8.54258 22.5563 7.69883 23.4813 7.69883C24.4063 7.69883 25.1563 8.54258 25.1563 9.5832ZM29.9125 11.4957C29.8063 8.97148 29.2938 6.73555 27.65 4.89336C26.0125 3.05117 24.025 2.47461 21.7813 2.34805C19.4688 2.20039 12.5375 2.20039 10.225 2.34805C7.9875 2.46758 6 3.04414 4.35625 4.88633C2.7125 6.72852 2.20625 8.96445 2.09375 11.4887C1.9625 14.0902 1.9625 21.8879 2.09375 24.4894C2.2 27.0137 2.7125 29.2496 4.35625 31.0918C6 32.934 7.98125 33.5105 10.225 33.6371C12.5375 33.7848 19.4688 33.7848 21.7813 33.6371C24.025 33.5176 26.0125 32.941 27.65 31.0918C29.2875 29.2496 29.8 27.0137 29.9125 24.4894C30.0438 21.8879 30.0438 14.0973 29.9125 11.4957ZM26.925 27.2809C26.4375 28.659 25.4938 29.7207 24.2625 30.2762C22.4188 31.0988 18.0438 30.909 16.0063 30.909C13.9688 30.909 9.5875 31.0918 7.75 30.2762C6.525 29.7277 5.58125 28.666 5.0875 27.2809C4.35625 25.2066 4.525 20.2848 4.525 17.9926C4.525 15.7004 4.3625 10.7715 5.0875 8.7043C5.575 7.32617 6.51875 6.26445 7.75 5.70898C9.59375 4.88633 13.9688 5.07617 16.0063 5.07617C18.0438 5.07617 22.425 4.89336 24.2625 5.70898C25.4875 6.25742 26.4313 7.31914 26.925 8.7043C27.6563 10.7785 27.4875 15.7004 27.4875 17.9926C27.4875 20.2848 27.6563 25.2137 26.925 27.2809Z" fill="#E5E7EB"/>
</svg>
