<svg width="32" height="36" viewBox="0 0 32 36" fill="none" xmlns="http://www.w3.org/2000/svg">
<path d="M30 14.7593C27.2484 14.7667 24.5643 13.8013 22.3269 11.9995V24.5658C22.3261 26.8932 21.6938 29.1649 20.5144 31.0771C19.3351 32.9892 17.6649 34.4508 15.7272 35.2663C13.7896 36.0818 11.6768 36.2124 9.67142 35.6405C7.66603 35.0687 5.86361 33.8218 4.50517 32.0664C3.14673 30.311 2.29702 28.1309 2.06966 25.8176C1.84231 23.5043 2.24814 21.1681 3.23289 19.1212C4.21764 17.0744 5.73438 15.4146 7.58028 14.3637C9.42619 13.3128 11.5133 12.921 13.5625 13.2405V19.5609C12.6248 19.2291 11.6178 19.2391 10.6855 19.5895C9.75309 19.9399 8.94298 20.6128 8.3708 21.512C7.79863 22.4113 7.49367 23.4909 7.49946 24.5968C7.50525 25.7027 7.8215 26.7782 8.40304 27.6698C8.98459 28.5614 9.8017 29.2235 10.7377 29.5615C11.6736 29.8995 12.6806 29.8962 13.6148 29.552C14.549 29.2077 15.3626 28.5402 15.9395 27.6448C16.5163 26.7493 16.8269 25.6717 16.8269 24.5658V0H22.3269C22.3231 0.52252 22.362 1.04433 22.4431 1.55883C22.6342 2.70737 23.0316 3.79997 23.611 4.76981C24.1903 5.73965 24.9394 6.56633 25.8125 7.1993C27.0546 8.12327 28.5109 8.61574 30 8.61539V14.7593Z" fill="#E5E7EB"/>
</svg>
