<svg width="15" height="16" viewBox="0 0 15 16" fill="none" xmlns="http://www.w3.org/2000/svg">
<g clip-path="url(#clip0_90_8026)">
<path d="M7.5 15.5C11.6421 15.5 15 12.1421 15 8C15 3.85786 11.6421 0.5 7.5 0.5C3.35786 0.5 0 3.85786 0 8C0 12.1421 3.35786 15.5 7.5 15.5Z" fill="#E6E7E8"/>
<path d="M13.6704 3.74125C12.7721 3.705 11.4521 3.81875 10.2496 4.56042C10.2458 4.5625 10.2417 4.56208 10.2379 4.56417C10.2296 4.56875 10.225 4.57667 10.2171 4.58167C9.32208 5.14333 8.49583 6.05625 7.9625 7.52083C6.96458 7.50042 6.05875 7.40167 5.25917 7.22292C6.99542 2.22083 10.7375 2.09583 12.3746 2.30708C11.9948 1.98059 11.5833 1.69291 11.1462 1.44833C9.03333 1.54833 5.98042 2.53625 4.4525 7.00458C3.70375 6.76375 3.06958 6.44208 2.56333 6.04125C2.58583 6.00976 2.60379 5.97525 2.61667 5.93875C4.00167 1.73833 7.69917 0.80625 8.795 0.619167C8.36758 0.542188 7.93429 0.502317 7.5 0.5C7.06792 0.5 6.6475 0.544583 6.23542 0.614583C4.67792 1.37875 2.86833 2.8 1.92042 5.41417C1.45792 4.84167 1.27958 4.2825 1.2125 3.91917C1.00293 4.24196 0.818632 4.58046 0.66125 4.93167C0.871571 5.41624 1.1674 5.85899 1.53458 6.23875C2.85458 7.61667 5.07417 8.32625 8.12083 8.35875C8.38792 9.29 8.52458 10.145 8.56417 10.9221C3.68333 11.0967 1.21208 9.08292 0.0266667 7.47333C0.0145833 7.64792 0 7.82208 0 8C0 8.24542 0.01375 8.48792 0.0366667 8.7275C1.4625 10.2388 3.91292 11.7679 8.00083 11.7679C8.18625 11.7679 8.37875 11.7613 8.57083 11.7546C8.5474 12.4736 8.43302 13.1868 8.23042 13.8771C4.26042 13.7704 2.005 12.4767 0.75875 11.2708C1.14353 12.0644 1.66512 12.784 2.29958 13.3967C3.66417 14.0908 5.5 14.6075 7.95208 14.6588C7.8323 14.9468 7.69453 15.2271 7.53958 15.4979C7.87292 15.4963 8.19917 15.4663 8.52125 15.4225C9.28292 13.8604 9.89833 11.3575 8.87208 7.94833L8.79 7.69292C9.16917 6.70833 9.69875 6.02167 10.2867 5.54958C12.1471 9.33458 11.1637 12.9242 10.2446 14.9746C10.6362 14.8204 11.01 14.6329 11.3662 14.4179C12.2108 12.1258 12.7975 8.69125 10.9887 5.09167C11.5737 4.78792 12.1754 4.64375 12.7154 4.58625C12.7188 4.59208 12.7188 4.59917 12.7225 4.605C14.5121 7.39375 13.725 10.8829 12.6921 13.4046C13.3618 12.7605 13.9061 11.9977 14.2975 11.155C14.8804 8.62833 14.6696 6.37958 13.6658 4.5625C13.8683 4.57375 14.045 4.59292 14.1858 4.61333C14.0338 4.31138 13.8616 4.02002 13.6704 3.74125Z" fill="#99AAB5"/>
</g>
<defs>
<clipPath id="clip0_90_8026">
<rect width="15" height="15" fill="white" transform="translate(0 0.5)"/>
</clipPath>
</defs>
</svg>
