<svg width="32" height="36" viewBox="0 0 32 36" fill="none" xmlns="http://www.w3.org/2000/svg">
<path d="M30.5364 9.75519C30.1874 8.27706 29.1593 7.11294 27.8539 6.71788C25.4878 6 16 6 16 6C16 6 6.51222 6 4.14605 6.71788C2.84066 7.113 1.81255 8.27706 1.46361 9.75519C0.829605 12.4344 0.829605 18.0243 0.829605 18.0243C0.829605 18.0243 0.829605 23.6141 1.46361 26.2933C1.81255 27.7714 2.84066 28.8871 4.14605 29.2821C6.51222 30 16 30 16 30C16 30 25.4878 30 27.8539 29.2821C29.1593 28.8871 30.1874 27.7714 30.5364 26.2933C31.1704 23.6141 31.1704 18.0243 31.1704 18.0243C31.1704 18.0243 31.1704 12.4344 30.5364 9.75519ZM12.8969 23.0994V12.9491L20.8269 18.0244L12.8969 23.0994Z" fill="#E5E7EB"/>
</svg>
